  0
SECTION
  2
HEADER
  9
$ACADVER
  1
AC1009
  0
ENDSEC
  0
SECTION
  2
ENTITIES
  0
POLYLINE
  8
MN_COPPERNN
 66
1
 39
0
 10
0.000000
 20
0.000000
 30
0.000000
 70
1
  0
VERTEX
  8
MN_COPPERNN
 39
0
 10
1.500000
 20
0.250000
 30
0.000000
 70
0
 42
0
  0
VERTEX
  8
MN_COPPERNN
 39
0
 10
2.500000
 20
0.250000
 30
0.000000
 70
0
 42
0
  0
VERTEX
  8
MN_COPPERNN
 39
0
 10
2.500000
 20
1.500000
 30
0.000000
 70
0
 42
0
  0
VERTEX
  8
MN_COPPERNN
 39
0
 10
1.000000
 20
1.500000
 30
0.000000
 70
0
 42
0
  0
VERTEX
  8
MN_COPPERNN
 39
0
 10
0.000000
 20
1.500000
 30
0.000000
 70
0
 42
0
  0
VERTEX
  8
MN_COPPERNN
 39
0
 10
0.000000
 20
0.750000
 30
0.000000
 70
0
 42
0
  0
VERTEX
  8
MN_COPPERNN
 39
0
 10
1.500000
 20
0.750000
 30
0.000000
 70
0
 42
0
  0
SEQEND
  8
MN_COPPERNN
  0
POLYLINE
  8
MN_COPPERNN
 66
1
 39
0
 10
0.000000
 20
0.000000
 30
0.000000
 70
1
  0
VERTEX
  8
MN_COPPERNN
 39
0
 10
0.000000
 20
1.750000
 30
0.000000
 70
0
 42
0
  0
VERTEX
  8
MN_COPPERNN
 39
0
 10
1.000000
 20
1.750000
 30
0.000000
 70
0
 42
0
  0
VERTEX
  8
MN_COPPERNN
 39
0
 10
1.000000
 20
5.350000
 30
0.000000
 70
0
 42
0
  0
VERTEX
  8
MN_COPPERNN
 39
0
 10
0.000000
 20
5.350000
 30
0.000000
 70
0
 42
0
  0
SEQEND
  8
MN_COPPERNN
  0
POLYLINE
  8
MN_COPPERNN
 66
1
 39
0
 10
0.000000
 20
0.000000
 30
0.000000
 70
1
  0
VERTEX
  8
MN_COPPERNN
 39
0
 10
1.000000
 20
5.600000
 30
0.000000
 70
0
 42
0
  0
VERTEX
  8
MN_COPPERNN
 39
0
 10
1.000000
 20
6.400000
 30
0.000000
 70
0
 42
0
  0
VERTEX
  8
MN_COPPERNN
 39
0
 10
0.000000
 20
6.400000
 30
0.000000
 70
0
 42
0
  0
VERTEX
  8
MN_COPPERNN
 39
0
 10
0.000000
 20
5.600000
 30
0.000000
 70
0
 42
0
  0
SEQEND
  8
MN_COPPERNN
  0
POLYLINE
  8
LQW15AN_W05_WPADS_S_LEAD
 66
1
 39
0
 10
0.000000
 20
0.000000
 30
0.000000
 70
1
  0
VERTEX
  8
LQW15AN_W05_WPADS_S_LEAD
 39
0
 10
0.925000
 20
4.800000
 30
0.000000
 70
0
 42
0
  0
VERTEX
  8
LQW15AN_W05_WPADS_S_LEAD
 39
0
 10
0.925000
 20
5.350000
 30
0.000000
 70
0
 42
0
  0
VERTEX
  8
LQW15AN_W05_WPADS_S_LEAD
 39
0
 10
0.075000
 20
5.350000
 30
0.000000
 70
0
 42
0
  0
VERTEX
  8
LQW15AN_W05_WPADS_S_LEAD
 39
0
 10
0.075000
 20
4.800000
 30
0.000000
 70
0
 42
0
  0
SEQEND
  8
LQW15AN_W05_WPADS_S_LEAD
  0
POLYLINE
  8
LQW15AN_W05_WPADS_S_LEAD
 66
1
 39
0
 10
0.000000
 20
0.000000
 30
0.000000
 70
1
  0
VERTEX
  8
LQW15AN_W05_WPADS_S_LEAD
 39
0
 10
0.925000
 20
5.600000
 30
0.000000
 70
0
 42
0
  0
VERTEX
  8
LQW15AN_W05_WPADS_S_LEAD
 39
0
 10
0.925000
 20
6.150000
 30
0.000000
 70
0
 42
0
  0
VERTEX
  8
LQW15AN_W05_WPADS_S_LEAD
 39
0
 10
0.075000
 20
6.150000
 30
0.000000
 70
0
 42
0
  0
VERTEX
  8
LQW15AN_W05_WPADS_S_LEAD
 39
0
 10
0.075000
 20
5.600000
 30
0.000000
 70
0
 42
0
  0
SEQEND
  8
LQW15AN_W05_WPADS_S_LEAD
  0
POLYLINE
  8
LQW15AN_W05_WPADS_P_LEAD
 66
1
 39
0
 10
0.000000
 20
0.000000
 30
0.000000
 70
1
  0
VERTEX
  8
LQW15AN_W05_WPADS_P_LEAD
 39
0
 10
1.800000
 20
4.175000
 30
0.000000
 70
0
 42
0
  0
VERTEX
  8
LQW15AN_W05_WPADS_P_LEAD
 39
0
 10
1.250000
 20
4.175000
 30
0.000000
 70
0
 42
0
  0
VERTEX
  8
LQW15AN_W05_WPADS_P_LEAD
 39
0
 10
1.250000
 20
3.325000
 30
0.000000
 70
0
 42
0
  0
VERTEX
  8
LQW15AN_W05_WPADS_P_LEAD
 39
0
 10
1.800000
 20
3.325000
 30
0.000000
 70
0
 42
0
  0
SEQEND
  8
LQW15AN_W05_WPADS_P_LEAD
  0
POLYLINE
  8
LQW15AN_W05_WPADS_P_LEAD
 66
1
 39
0
 10
0.000000
 20
0.000000
 30
0.000000
 70
1
  0
VERTEX
  8
LQW15AN_W05_WPADS_P_LEAD
 39
0
 10
1.000000
 20
4.175000
 30
0.000000
 70
0
 42
0
  0
VERTEX
  8
LQW15AN_W05_WPADS_P_LEAD
 39
0
 10
0.450000
 20
4.175000
 30
0.000000
 70
0
 42
0
  0
VERTEX
  8
LQW15AN_W05_WPADS_P_LEAD
 39
0
 10
0.450000
 20
3.325000
 30
0.000000
 70
0
 42
0
  0
VERTEX
  8
LQW15AN_W05_WPADS_P_LEAD
 39
0
 10
1.000000
 20
3.325000
 30
0.000000
 70
0
 42
0
  0
SEQEND
  8
LQW15AN_W05_WPADS_P_LEAD
  0
POLYLINE
  8
LQW15AN_W05_WPADS_S_1_LEAD
 66
1
 39
0
 10
0.000000
 20
0.000000
 30
0.000000
 70
1
  0
VERTEX
  8
LQW15AN_W05_WPADS_S_1_LEAD
 39
0
 10
0.925000
 20
0.950000
 30
0.000000
 70
0
 42
0
  0
VERTEX
  8
LQW15AN_W05_WPADS_S_1_LEAD
 39
0
 10
0.925000
 20
1.500000
 30
0.000000
 70
0
 42
0
  0
VERTEX
  8
LQW15AN_W05_WPADS_S_1_LEAD
 39
0
 10
0.075000
 20
1.500000
 30
0.000000
 70
0
 42
0
  0
VERTEX
  8
LQW15AN_W05_WPADS_S_1_LEAD
 39
0
 10
0.075000
 20
0.950000
 30
0.000000
 70
0
 42
0
  0
SEQEND
  8
LQW15AN_W05_WPADS_S_1_LEAD
  0
POLYLINE
  8
LQW15AN_W05_WPADS_S_1_LEAD
 66
1
 39
0
 10
0.000000
 20
0.000000
 30
0.000000
 70
1
  0
VERTEX
  8
LQW15AN_W05_WPADS_S_1_LEAD
 39
0
 10
0.925000
 20
1.750000
 30
0.000000
 70
0
 42
0
  0
VERTEX
  8
LQW15AN_W05_WPADS_S_1_LEAD
 39
0
 10
0.925000
 20
2.300000
 30
0.000000
 70
0
 42
0
  0
VERTEX
  8
LQW15AN_W05_WPADS_S_1_LEAD
 39
0
 10
0.075000
 20
2.300000
 30
0.000000
 70
0
 42
0
  0
VERTEX
  8
LQW15AN_W05_WPADS_S_1_LEAD
 39
0
 10
0.075000
 20
1.750000
 30
0.000000
 70
0
 42
0
  0
SEQEND
  8
LQW15AN_W05_WPADS_S_1_LEAD
  0
POLYLINE
  8
MN_COPPERNN
 66
1
 39
0
 10
0.000000
 20
0.000000
 30
0.000000
 70
1
  0
VERTEX
  8
MN_COPPERNN
 39
0
 10
2.950000
 20
1.750000
 30
0.000000
 70
0
 42
0
  0
VERTEX
  8
MN_COPPERNN
 39
0
 10
2.950000
 20
6.400000
 30
0.000000
 70
0
 42
0
  0
VERTEX
  8
MN_COPPERNN
 39
0
 10
1.250000
 20
6.400000
 30
0.000000
 70
0
 42
0
  0
VERTEX
  8
MN_COPPERNN
 39
0
 10
1.250000
 20
1.750000
 30
0.000000
 70
0
 42
0
  0
SEQEND
  8
MN_COPPERNN
  0
POLYLINE
  8
CU_MACRO
 66
1
 39
0
 10
0.000000
 20
0.000000
 30
0.000000
 70
1
  0
VERTEX
  8
CU_MACRO
 39
0
 10
15.000000
 20
6.400000
 30
0.000000
 70
0
 42
0
  0
VERTEX
  8
CU_MACRO
 39
0
 10
2.950000
 20
6.400000
 30
0.000000
 70
0
 42
0
  0
VERTEX
  8
CU_MACRO
 39
0
 10
2.950000
 20
0.000000
 30
0.000000
 70
0
 42
0
  0
VERTEX
  8
CU_MACRO
 39
0
 10
0.000000
 20
0.000000
 30
0.000000
 70
0
 42
0
  0
VERTEX
  8
CU_MACRO
 39
0
 10
0.000000
 20
-76.600000
 30
0.000000
 70
0
 42
0
  0
VERTEX
  8
CU_MACRO
 39
0
 10
20.000000
 20
-76.600000
 30
0.000000
 70
0
 42
0
  0
VERTEX
  8
CU_MACRO
 39
0
 10
20.000000
 20
13.400000
 30
0.000000
 70
0
 42
0
  0
VERTEX
  8
CU_MACRO
 39
0
 10
15.000000
 20
13.400000
 30
0.000000
 70
0
 42
0
  0
SEQEND
  8
CU_MACRO
  0
POLYLINE
  8
CU_MACRO
 66
1
 39
0
 10
0.000000
 20
0.000000
 30
0.000000
 70
1
  0
VERTEX
  8
CU_MACRO
 39
0
 10
0.000000
 20
6.400000
 30
0.000000
 70
0
 42
0
  0
VERTEX
  8
CU_MACRO
 39
0
 10
1.000000
 20
6.400000
 30
0.000000
 70
0
 42
0
  0
VERTEX
  8
CU_MACRO
 39
0
 10
1.000000
 20
12.200000
 30
0.000000
 70
0
 42
0
  0
VERTEX
  8
CU_MACRO
 39
0
 10
0.000000
 20
12.200000
 30
0.000000
 70
0
 42
0
  0
SEQEND
  8
CU_MACRO
  0
POLYLINE
  8
NN03-320_TOPROTECT_HCU_WSOLDER_WCUPADS_V1_LEAD
 66
1
 39
0
 10
0.000000
 20
0.000000
 30
0.000000
 70
1
  0
VERTEX
  8
NN03-320_TOPROTECT_HCU_WSOLDER_WCUPADS_V1_LEAD
 39
0
 10
7.000000
 20
12.400000
 30
0.000000
 70
0
 42
0
  0
VERTEX
  8
NN03-320_TOPROTECT_HCU_WSOLDER_WCUPADS_V1_LEAD
 39
0
 10
6.000000
 20
12.400000
 30
0.000000
 70
0
 42
0
  0
VERTEX
  8
NN03-320_TOPROTECT_HCU_WSOLDER_WCUPADS_V1_LEAD
 39
0
 10
6.000000
 20
11.400000
 30
0.000000
 70
0
 42
0
  0
VERTEX
  8
NN03-320_TOPROTECT_HCU_WSOLDER_WCUPADS_V1_LEAD
 39
0
 10
7.000000
 20
11.400000
 30
0.000000
 70
0
 42
0
  0
SEQEND
  8
NN03-320_TOPROTECT_HCU_WSOLDER_WCUPADS_V1_LEAD
  0
POLYLINE
  8
NN03-320_TOPROTECT_HCU_WSOLDER_WCUPADS_V1_LEAD
 66
1
 39
0
 10
0.000000
 20
0.000000
 30
0.000000
 70
1
  0
VERTEX
  8
NN03-320_TOPROTECT_HCU_WSOLDER_WCUPADS_V1_LEAD
 39
0
 10
2.000000
 20
13.400000
 30
0.000000
 70
0
 42
0
  0
VERTEX
  8
NN03-320_TOPROTECT_HCU_WSOLDER_WCUPADS_V1_LEAD
 39
0
 10
1.500000
 20
13.400000
 30
0.000000
 70
0
 42
0
  0
VERTEX
  8
NN03-320_TOPROTECT_HCU_WSOLDER_WCUPADS_V1_LEAD
 39
0
 10
1.500000
 20
12.200000
 30
0.000000
 70
0
 42
0
  0
VERTEX
  8
NN03-320_TOPROTECT_HCU_WSOLDER_WCUPADS_V1_LEAD
 39
0
 10
1.500000
 20
10.400000
 30
0.000000
 70
0
 42
0
  0
VERTEX
  8
NN03-320_TOPROTECT_HCU_WSOLDER_WCUPADS_V1_LEAD
 39
0
 10
2.000000
 20
10.400000
 30
0.000000
 70
0
 42
0
  0
VERTEX
  8
NN03-320_TOPROTECT_HCU_WSOLDER_WCUPADS_V1_LEAD
 39
0
 10
2.000000
 20
11.400000
 30
0.000000
 70
0
 42
0
  0
SEQEND
  8
NN03-320_TOPROTECT_HCU_WSOLDER_WCUPADS_V1_LEAD
  0
POLYLINE
  8
NN03-320_TOPROTECT_HCU_WSOLDER_WCUPADS_V1_LEAD
 66
1
 39
0
 10
0.000000
 20
0.000000
 30
0.000000
 70
1
  0
VERTEX
  8
NN03-320_TOPROTECT_HCU_WSOLDER_WCUPADS_V1_LEAD
 39
0
 10
1.000000
 20
12.200000
 30
0.000000
 70
0
 42
0
  0
VERTEX
  8
NN03-320_TOPROTECT_HCU_WSOLDER_WCUPADS_V1_LEAD
 39
0
 10
1.000000
 20
13.200000
 30
0.000000
 70
0
 42
0
  0
VERTEX
  8
NN03-320_TOPROTECT_HCU_WSOLDER_WCUPADS_V1_LEAD
 39
0
 10
0.000000
 20
13.200000
 30
0.000000
 70
0
 42
0
  0
VERTEX
  8
NN03-320_TOPROTECT_HCU_WSOLDER_WCUPADS_V1_LEAD
 39
0
 10
0.000000
 20
12.200000
 30
0.000000
 70
0
 42
0
  0
SEQEND
  8
NN03-320_TOPROTECT_HCU_WSOLDER_WCUPADS_V1_LEAD
  0
POLYLINE
  8
NN03-320_TOPROTECT_HCU_WSOLDER_WCUPADS_V1_COPPER_MSS
 66
1
 39
0
 10
0.000000
 20
0.000000
 30
0.000000
 70
1
  0
VERTEX
  8
NN03-320_TOPROTECT_HCU_WSOLDER_WCUPADS_V1_COPPER_MSS
 39
0
 10
6.000000
 20
12.400000
 30
0.000000
 70
0
 42
0
  0
VERTEX
  8
NN03-320_TOPROTECT_HCU_WSOLDER_WCUPADS_V1_COPPER_MSS
 39
0
 10
6.000000
 20
11.400000
 30
0.000000
 70
0
 42
0
  0
VERTEX
  8
NN03-320_TOPROTECT_HCU_WSOLDER_WCUPADS_V1_COPPER_MSS
 39
0
 10
7.000000
 20
11.400000
 30
0.000000
 70
0
 42
0
  0
VERTEX
  8
NN03-320_TOPROTECT_HCU_WSOLDER_WCUPADS_V1_COPPER_MSS
 39
0
 10
7.000000
 20
12.400000
 30
0.000000
 70
0
 42
0
  0
SEQEND
  8
NN03-320_TOPROTECT_HCU_WSOLDER_WCUPADS_V1_COPPER_MSS
  0
POLYLINE
  8
NN03-320_TOPROTECT_HCU_WSOLDER_WCUPADS_V1_COPPER_MSS
 66
1
 39
0
 10
0.000000
 20
0.000000
 30
0.000000
 70
1
  0
VERTEX
  8
NN03-320_TOPROTECT_HCU_WSOLDER_WCUPADS_V1_COPPER_MSS
 39
0
 10
1.500000
 20
12.200000
 30
0.000000
 70
0
 42
0
  0
VERTEX
  8
NN03-320_TOPROTECT_HCU_WSOLDER_WCUPADS_V1_COPPER_MSS
 39
0
 10
1.500000
 20
10.400000
 30
0.000000
 70
0
 42
0
  0
VERTEX
  8
NN03-320_TOPROTECT_HCU_WSOLDER_WCUPADS_V1_COPPER_MSS
 39
0
 10
2.000000
 20
10.400000
 30
0.000000
 70
0
 42
0
  0
VERTEX
  8
NN03-320_TOPROTECT_HCU_WSOLDER_WCUPADS_V1_COPPER_MSS
 39
0
 10
2.000000
 20
11.400000
 30
0.000000
 70
0
 42
0
  0
VERTEX
  8
NN03-320_TOPROTECT_HCU_WSOLDER_WCUPADS_V1_COPPER_MSS
 39
0
 10
2.000000
 20
13.400000
 30
0.000000
 70
0
 42
0
  0
VERTEX
  8
NN03-320_TOPROTECT_HCU_WSOLDER_WCUPADS_V1_COPPER_MSS
 39
0
 10
1.500000
 20
13.400000
 30
0.000000
 70
0
 42
0
  0
SEQEND
  8
NN03-320_TOPROTECT_HCU_WSOLDER_WCUPADS_V1_COPPER_MSS
  0
POLYLINE
  8
NN03-320_TOPROTECT_HCU_WSOLDER_WCUPADS_V1_COPPER_MSS
 66
1
 39
0
 10
0.000000
 20
0.000000
 30
0.000000
 70
1
  0
VERTEX
  8
NN03-320_TOPROTECT_HCU_WSOLDER_WCUPADS_V1_COPPER_MSS
 39
0
 10
0.000000
 20
12.200000
 30
0.000000
 70
0
 42
0
  0
VERTEX
  8
NN03-320_TOPROTECT_HCU_WSOLDER_WCUPADS_V1_COPPER_MSS
 39
0
 10
1.000000
 20
12.200000
 30
0.000000
 70
0
 42
0
  0
VERTEX
  8
NN03-320_TOPROTECT_HCU_WSOLDER_WCUPADS_V1_COPPER_MSS
 39
0
 10
1.000000
 20
13.200000
 30
0.000000
 70
0
 42
0
  0
VERTEX
  8
NN03-320_TOPROTECT_HCU_WSOLDER_WCUPADS_V1_COPPER_MSS
 39
0
 10
0.000000
 20
13.200000
 30
0.000000
 70
0
 42
0
  0
SEQEND
  8
NN03-320_TOPROTECT_HCU_WSOLDER_WCUPADS_V1_COPPER_MSS
  0
ENDSEC
  0
EOF
